<svg width="426" height="170" viewBox="0 0 426 170" fill="none" xmlns="http://www.w3.org/2000/svg">
<g filter="url(#filter0_di_763_626)">
<path d="M2 70H424V77.6C424 105.043 424 118.764 418.659 129.246C413.962 138.465 406.465 145.962 397.246 150.659C386.764 156 373.043 156 345.6 156H80.4C52.9574 156 39.2361 156 28.7545 150.659C19.5345 145.962 12.0385 138.465 7.34068 129.246C2 118.764 2 105.043 2 77.6V70Z" fill="#FF4C4C"/>
</g>
<g filter="url(#filter1_d_763_626)">
<rect x="2" y="15" width="422" height="136" rx="49" fill="#FF4C4C"/>
<rect x="3" y="16" width="420" height="134" rx="48" stroke="url(#paint0_linear_763_626)" stroke-opacity="0.2" stroke-width="2"/>
<g filter="url(#filter2_d_763_626)">
<path d="M109.776 108.836C107.749 108.836 105.621 108.684 103.392 108.38C101.213 108.127 99.136 107.721 97.16 107.164C95.184 106.607 93.4107 105.948 91.84 105.188C90.472 104.529 89.5093 103.668 88.952 102.604C88.3947 101.489 88.192 100.324 88.344 99.108C88.496 97.892 88.9267 96.828 89.636 95.916C90.3453 94.9533 91.2827 94.32 92.448 94.016C93.6133 93.6613 94.9307 93.8133 96.4 94.472C98.3253 95.384 100.504 96.0933 102.936 96.6C105.368 97.1067 107.648 97.36 109.776 97.36C113.12 97.36 115.451 96.9293 116.768 96.068C118.136 95.156 118.82 94.0413 118.82 92.724C118.82 91.5587 118.339 90.6213 117.376 89.912C116.464 89.2027 114.817 88.5947 112.436 88.088L103.544 86.188C98.68 85.1747 95.0573 83.4013 92.676 80.868C90.2947 78.3347 89.104 75.0667 89.104 71.064C89.104 68.4293 89.636 66.048 90.7 63.92C91.8147 61.7413 93.36 59.892 95.336 58.372C97.3627 56.852 99.744 55.6867 102.48 54.876C105.267 54.0147 108.357 53.584 111.752 53.584C114.387 53.584 117.047 53.888 119.732 54.496C122.468 55.0533 124.824 55.9147 126.8 57.08C127.965 57.688 128.801 58.524 129.308 59.588C129.815 60.652 130.017 61.7667 129.916 62.932C129.815 64.0467 129.409 65.0347 128.7 65.896C128.041 66.7573 127.129 67.34 125.964 67.644C124.849 67.8973 123.507 67.6947 121.936 67.036C120.467 66.3773 118.795 65.896 116.92 65.592C115.096 65.2373 113.323 65.06 111.6 65.06C109.725 65.06 108.129 65.288 106.812 65.744C105.495 66.1493 104.481 66.7573 103.772 67.568C103.113 68.3787 102.784 69.316 102.784 70.38C102.784 71.444 103.215 72.356 104.076 73.116C104.988 73.8253 106.635 74.4333 109.016 74.94L117.832 76.84C122.747 77.904 126.42 79.652 128.852 82.084C131.284 84.516 132.5 87.6827 132.5 91.584C132.5 94.2187 131.968 96.6 130.904 98.728C129.84 100.856 128.32 102.68 126.344 104.2C124.368 105.669 121.987 106.809 119.2 107.62C116.413 108.431 113.272 108.836 109.776 108.836ZM159.383 108.684C157.153 108.684 155.431 108.076 154.215 106.86C152.999 105.593 152.391 103.845 152.391 101.616V65.82H140.459C138.584 65.82 137.14 65.3387 136.127 64.376C135.164 63.3627 134.683 61.944 134.683 60.12C134.683 58.2453 135.164 56.8267 136.127 55.864C137.14 54.9013 138.584 54.42 140.459 54.42H178.307C180.181 54.42 181.6 54.9013 182.563 55.864C183.576 56.8267 184.083 58.2453 184.083 60.12C184.083 61.944 183.576 63.3627 182.563 64.376C181.6 65.3387 180.181 65.82 178.307 65.82H166.375V101.616C166.375 103.845 165.792 105.593 164.627 106.86C163.461 108.076 161.713 108.684 159.383 108.684ZM186.701 108.684C185.13 108.684 183.813 108.329 182.749 107.62C181.685 106.86 181.026 105.847 180.773 104.58C180.52 103.263 180.748 101.793 181.457 100.172L200.381 59.436C201.293 57.46 202.408 56.016 203.725 55.104C205.093 54.192 206.638 53.736 208.361 53.736C210.084 53.736 211.578 54.192 212.845 55.104C214.162 56.016 215.302 57.46 216.265 59.436L235.189 100.172C236 101.793 236.278 103.263 236.025 104.58C235.822 105.897 235.189 106.911 234.125 107.62C233.112 108.329 231.845 108.684 230.325 108.684C228.298 108.684 226.728 108.228 225.613 107.316C224.549 106.404 223.586 104.935 222.725 102.908L218.621 93.256L223.941 97.132H192.629L198.025 93.256L193.921 102.908C193.009 104.935 192.072 106.404 191.109 107.316C190.146 108.228 188.677 108.684 186.701 108.684ZM208.209 69.012L199.393 90.064L197.265 86.416H219.381L217.253 90.064L208.361 69.012H208.209ZM250.67 108.684C248.441 108.684 246.718 108.076 245.502 106.86C244.286 105.593 243.678 103.845 243.678 101.616V61.488C243.678 59.208 244.286 57.46 245.502 56.244C246.769 55.028 248.517 54.42 250.746 54.42H269.442C275.522 54.42 280.209 55.9147 283.502 58.904C286.846 61.8427 288.518 65.9467 288.518 71.216C288.518 74.6107 287.758 77.5747 286.238 80.108C284.769 82.5907 282.615 84.516 279.778 85.884C276.991 87.2013 273.546 87.86 269.442 87.86L270.05 86.492H273.698C275.877 86.492 277.802 87.024 279.474 88.088C281.146 89.1013 282.539 90.672 283.654 92.8L287.454 99.64C288.265 101.109 288.645 102.553 288.594 103.972C288.543 105.34 287.986 106.48 286.922 107.392C285.909 108.253 284.414 108.684 282.438 108.684C280.462 108.684 278.841 108.279 277.574 107.468C276.358 106.657 275.269 105.391 274.306 103.668L267.39 90.976C266.782 89.8613 265.997 89.1013 265.034 88.696C264.122 88.24 263.058 88.012 261.842 88.012H257.662V101.616C257.662 103.845 257.079 105.593 255.914 106.86C254.749 108.076 253.001 108.684 250.67 108.684ZM257.662 78.132H266.934C269.619 78.132 271.671 77.6 273.09 76.536C274.509 75.472 275.218 73.8253 275.218 71.596C275.218 69.468 274.509 67.872 273.09 66.808C271.671 65.6933 269.619 65.136 266.934 65.136H257.662V78.132ZM316.982 108.684C314.752 108.684 313.03 108.076 311.814 106.86C310.598 105.593 309.99 103.845 309.99 101.616V65.82H298.058C296.183 65.82 294.739 65.3387 293.726 64.376C292.763 63.3627 292.282 61.944 292.282 60.12C292.282 58.2453 292.763 56.8267 293.726 55.864C294.739 54.9013 296.183 54.42 298.058 54.42H335.906C337.78 54.42 339.199 54.9013 340.162 55.864C341.175 56.8267 341.682 58.2453 341.682 60.12C341.682 61.944 341.175 63.3627 340.162 64.376C339.199 65.3387 337.78 65.82 335.906 65.82H323.974V101.616C323.974 103.845 323.391 105.593 322.226 106.86C321.06 108.076 319.312 108.684 316.982 108.684Z" fill="white"/>
</g>
</g>
<defs>
<filter id="filter0_di_763_626" x="0" y="68" width="426" height="94" filterUnits="userSpaceOnUse" color-interpolation-filters="sRGB">
<feFlood flood-opacity="0" result="BackgroundImageFix"/>
<feColorMatrix in="SourceAlpha" type="matrix" values="0 0 0 0 0 0 0 0 0 0 0 0 0 0 0 0 0 0 127 0" result="hardAlpha"/>
<feOffset dy="4"/>
<feGaussianBlur stdDeviation="1"/>
<feComposite in2="hardAlpha" operator="out"/>
<feColorMatrix type="matrix" values="0 0 0 0 0 0 0 0 0 0 0 0 0 0 0 0 0 0 0.25 0"/>
<feBlend mode="normal" in2="BackgroundImageFix" result="effect1_dropShadow_763_626"/>
<feBlend mode="normal" in="SourceGraphic" in2="effect1_dropShadow_763_626" result="shape"/>
<feColorMatrix in="SourceAlpha" type="matrix" values="0 0 0 0 0 0 0 0 0 0 0 0 0 0 0 0 0 0 127 0" result="hardAlpha"/>
<feOffset dy="-2"/>
<feGaussianBlur stdDeviation="1"/>
<feComposite in2="hardAlpha" operator="arithmetic" k2="-1" k3="1"/>
<feColorMatrix type="matrix" values="0 0 0 0 0 0 0 0 0 0 0 0 0 0 0 0 0 0 0.1 0"/>
<feBlend mode="normal" in2="shape" result="effect2_innerShadow_763_626"/>
</filter>
<filter id="filter1_d_763_626" x="2" y="15" width="422" height="155" filterUnits="userSpaceOnUse" color-interpolation-filters="sRGB">
<feFlood flood-opacity="0" result="BackgroundImageFix"/>
<feColorMatrix in="SourceAlpha" type="matrix" values="0 0 0 0 0 0 0 0 0 0 0 0 0 0 0 0 0 0 127 0" result="hardAlpha"/>
<feOffset dy="19"/>
<feComposite in2="hardAlpha" operator="out"/>
<feColorMatrix type="matrix" values="0 0 0 0 0 0 0 0 0 0 0 0 0 0 0 0 0 0 0.2 0"/>
<feBlend mode="normal" in2="BackgroundImageFix" result="effect1_dropShadow_763_626"/>
<feBlend mode="normal" in="SourceGraphic" in2="effect1_dropShadow_763_626" result="shape"/>
</filter>
<filter id="filter2_d_763_626" x="88.1162" y="53.584" width="253.565" height="57.252" filterUnits="userSpaceOnUse" color-interpolation-filters="sRGB">
<feFlood flood-opacity="0" result="BackgroundImageFix"/>
<feColorMatrix in="SourceAlpha" type="matrix" values="0 0 0 0 0 0 0 0 0 0 0 0 0 0 0 0 0 0 127 0" result="hardAlpha"/>
<feOffset dy="2"/>
<feComposite in2="hardAlpha" operator="out"/>
<feColorMatrix type="matrix" values="0 0 0 0 0 0 0 0 0 0 0 0 0 0 0 0 0 0 0.15 0"/>
<feBlend mode="normal" in2="BackgroundImageFix" result="effect1_dropShadow_763_626"/>
<feBlend mode="normal" in="SourceGraphic" in2="effect1_dropShadow_763_626" result="shape"/>
</filter>
<linearGradient id="paint0_linear_763_626" x1="213" y1="15" x2="213" y2="151" gradientUnits="userSpaceOnUse">
<stop stop-color="white" stop-opacity="0.5"/>
<stop offset="0.296666" stop-color="white" stop-opacity="0"/>
<stop offset="0.641666" stop-color="white" stop-opacity="0"/>
<stop offset="0.956666" stop-color="white"/>
</linearGradient>
</defs>
</svg>
