<svg width="63" height="77" viewBox="0 0 63 77" fill="none" xmlns="http://www.w3.org/2000/svg">
<path d="M0 38C0 33.5817 3.58172 30 8 30H55C59.4183 30 63 33.5817 63 38V41C63 57.5685 49.5685 71 33 71H30C13.4315 71 0 57.5685 0 41V38Z" fill="#FF4C4C"/>
<g filter="url(#filter0_d_875_4414)">
<circle cx="31.5" cy="37.5" r="31.5" fill="#FF4C4C"/>
<circle cx="31.5" cy="37.5" r="31" stroke="url(#paint0_linear_875_4414)"/>
</g>
<g filter="url(#filter1_d_875_4414)">
<path d="M27.0067 38.0078L17.0039 28.005C16.4371 27.4382 16.1544 26.7713 16.1557 26.0045C16.157 25.2376 16.4398 24.5707 17.0039 24.0039C17.5681 23.4371 18.2349 23.1543 19.0045 23.1557C19.774 23.157 20.4409 23.4397 21.005 24.0039L31.0078 34.0067L41.0106 24.0039C41.5774 23.4371 42.2443 23.1543 43.0111 23.1557C43.778 23.157 44.4449 23.4397 45.0117 24.0039C45.5785 24.5681 45.8619 25.2356 45.8619 26.0065C45.8619 26.7773 45.5785 27.4435 45.0117 28.005L35.0089 38.0078L45.0117 48.0106C45.5785 48.5774 45.8619 49.2449 45.8619 50.0131C45.8619 50.7813 45.5785 51.4475 45.0117 52.0117C44.4449 52.5758 43.7774 52.8592 43.0091 52.8619C42.2409 52.8646 41.5747 52.5812 41.0106 52.0117L31.0078 42.0089L21.005 52.0117C20.4382 52.5785 19.7707 52.8619 19.0025 52.8619C18.2343 52.8619 17.5681 52.5785 17.0039 52.0117C16.4398 51.4448 16.157 50.778 16.1557 50.0111C16.1544 49.2442 16.4371 48.5774 17.0039 48.0106L27.0067 38.0078Z" fill="white"/>
</g>
<defs>
<filter id="filter0_d_875_4414" x="0" y="6" width="63" height="71" filterUnits="userSpaceOnUse" color-interpolation-filters="sRGB">
<feFlood flood-opacity="0" result="BackgroundImageFix"/>
<feColorMatrix in="SourceAlpha" type="matrix" values="0 0 0 0 0 0 0 0 0 0 0 0 0 0 0 0 0 0 127 0" result="hardAlpha"/>
<feOffset dy="8"/>
<feComposite in2="hardAlpha" operator="out"/>
<feColorMatrix type="matrix" values="0 0 0 0 0 0 0 0 0 0 0 0 0 0 0 0 0 0 0.25 0"/>
<feBlend mode="normal" in2="BackgroundImageFix" result="effect1_dropShadow_875_4414"/>
<feBlend mode="normal" in="SourceGraphic" in2="effect1_dropShadow_875_4414" result="shape"/>
</filter>
<filter id="filter1_d_875_4414" x="16.1553" y="23.1558" width="29.707" height="31.7061" filterUnits="userSpaceOnUse" color-interpolation-filters="sRGB">
<feFlood flood-opacity="0" result="BackgroundImageFix"/>
<feColorMatrix in="SourceAlpha" type="matrix" values="0 0 0 0 0 0 0 0 0 0 0 0 0 0 0 0 0 0 127 0" result="hardAlpha"/>
<feOffset dy="2"/>
<feComposite in2="hardAlpha" operator="out"/>
<feColorMatrix type="matrix" values="0 0 0 0 0 0 0 0 0 0 0 0 0 0 0 0 0 0 0.15 0"/>
<feBlend mode="normal" in2="BackgroundImageFix" result="effect1_dropShadow_875_4414"/>
<feBlend mode="normal" in="SourceGraphic" in2="effect1_dropShadow_875_4414" result="shape"/>
</filter>
<linearGradient id="paint0_linear_875_4414" x1="31" y1="69" x2="31" y2="6" gradientUnits="userSpaceOnUse">
<stop stop-color="#FF7A7A"/>
<stop offset="1" stop-color="#FF4C4C"/>
</linearGradient>
</defs>
</svg>
